<svg style="position: absolute; width: 0; height: 0; overflow: hidden;" aria-hidden="true" version="1.1" xmlns="http://www.w3.org/2000/svg" xmlns:xlink="http://www.w3.org/1999/xlink">
    <style>
        .default-palette, .palette0 {color: currentColor;
            --color0: #bababa;
            --color1: #4d5ae5;
            --color2: #2e2f42;
            --color3: #f4f4fd;
            --color4: #fff;
        }
    </style>
    <defs>
        <symbol id="icon-check" viewBox="0 0 10 8">
            <path d="M8.445 0 9.8 1.33 3.32 7.6 0 4.364 1.385 3.06 3.29 4.926z" />
        </symbol>
        <symbol id="icon-send" viewBox="0 0 24 24" fill="none">
            <path fill="var(--color4, #fff)" d="M24 2 0 13.25l7.6699 2.3672L19.5 6.375 10.5017 16.4913l73e-4 23e-4-9e-3-23e-4V22l4.3013-4.1817 5.4488 1.6817z" />
        </symbol>
        <symbol id="icon-email" viewBox="0 0 15 12">
            <path d="M13.5 0h-12C0.675 0 75e-4 0.675 75e-4 1.5L0 10.5C0 11.325 0.675 12 1.5 12h12c0.825 0 1.5-0.675 1.5-1.5v-9C15 0.675 14.325 0 13.5 0zM13.2 3.1875 7.8975 6.5025c-0.24 0.15-0.555 0.15-0.795 0L1.8 3.1875c-0.1875-0.12-0.3-0.3225-0.3-0.54 0-0.5025 0.5475-0.8025 0.975-0.54L7.5 5.25l5.025-3.1425C12.9525 1.845 13.5 2.145 13.5 2.6475c0 0.2175-0.1125 0.42-0.3 0.54z" />
        </symbol>
        <symbol id="icon-phone" viewBox="0 0 13 13">
            <path d="M11.7263 8.8651 9.8881 8.6553C9.4467 8.6046 9.0125 8.7566 8.7013 9.0678l-1.3316 1.3315c-2.048-1.0421-3.7269-2.7138-4.769-4.769l1.3388-1.3389C4.2507 3.9803 4.4026 3.5461 4.352 3.1046L4.1421 1.2809C4.0553 0.55 3.4401 0 2.702 0H1.45C0.6323 0-0.048 0.6803 27e-4 1.498 0.3862 7.6783 5.3289 12.6138 11.5019 12.9973c0.8178 0.0507 1.498-0.6296 1.498-1.4473v-1.252c73e-4-0.7309-0.5427-1.346-1.2736-1.4329z" />
        </symbol>
        <symbol id="icon-person" viewBox="0 0 12 12" xmlns:xlink="http://www.w3.org/1999/xlink">
            <path d="M6 6c1.6575 0 3-1.3425 3-3S7.6575 0 6 0 3 1.3425 3 3 4.3425 6 6 6zM6 7.5c-2.0025 0-6 1.005-6 3v0.75C0 11.6625 0.3375 12 0.75 12h10.5c0.4125 0 0.75-0.3375 0.75-0.75V10.5c0-1.995-3.9975-3-6-3z" />
        </symbol>
        <symbol id="icon-close" viewBox="0 0 8 8" fill="none">
            <path fill="var(--color2, #2e2f42)" d="M8 0.8057 7.1943 0 4 3.1943 0.8057 0 0 0.8057 3.1943 4 0 7.1943 0.8057 8 4 4.8057 7.1943 8 8 7.1943 4.8057 4z" />
        </symbol>
        <symbol id="icon-facebook" viewBox="0 0 16 16" fill="none">
            <path fill="var(--color3, #f4f4fd)" d="M10.6647 2.6567l1.4607 0v-2.544C11.8734 0.078 11.0067 0 9.9974 0 7.8914 0 6.4487 1.3247 6.4487 3.7593V6h-2.324l0 2.844h2.324V16H9.298l0-7.1553 2.23 0 0.354-2.844-2.5846 0 0-1.9594c6e-4-0.822 0.222-1.3846 1.3673-1.3846z" />
            <defs>
                <clipPath id="clip0_1078403_46">
                    <rect fill="#fff" width="16" height="16" />
                </clipPath>
            </defs>
        </symbol>
        <symbol id="icon-linkedin" viewBox="0 0 16 16" fill="none">
            <g fill="var(--color3, #f4f4fd)" clip-path="url(#clip0_1078403_46)">
                <path d="M15.996 16v-6e-4H16v-5.868c0-2.8707-0.618-5.082-3.974-5.082-1.6133 0-2.696 0.8853-3.138 1.7246l-0.0466 0 0-1.4566-3.182 0 0 10.682h3.3133V10.71c0-1.3926 0.264-2.7393 1.9887-2.7393 1.6993 0 1.7246 1.5893 1.7246 2.8287V16z" />
                <path d="M0.264 5.318l3.3173 0 0 10.682H0.264z" />
                <path d="M1.9213 0C0.8607 0 0 0.8607 0 1.9213s0.8607 1.9394 1.9213 1.9394 1.9214-0.8787 1.9214-1.9394C3.842 0.8607 2.9813 0 1.9213 0z" />
            </g>
        </symbol>
        <symbol id="icon-instagram" viewBox="0 0 16 16" fill="none">
            <g fill="var(--color3, #f4f4fd)" clip-path="url(#clip0_1078403_46)">
                <path d="M15.9843 4.704c-0.0375-0.8501-0.175-1.4346-0.3719-1.941-0.2032-0.5376-0.5157-1.0189-0.9252-1.419-0.4001-0.4063-0.8846-0.7221-1.4159-0.922-0.5094-0.197-1.0908-0.3345-1.941-0.3719C10.4738 94e-4 10.2019 0 8.0296 0 5.8573 0 5.5854 94e-4 4.7321 0.0469 3.882 0.0844 3.2975 0.222 2.7912 0.4188 2.2535 0.6219 1.7722 0.9345 1.3721 1.344 0.9658 1.7441 0.6501 2.2286 0.45 2.7599 0.2531 3.2694 0.1156 3.8507 0.0781 4.7009c-0.0406 0.8565-0.05 1.1284-0.05 3.3007 0 2.1723 94e-4 2.4442 0.0469 3.2975 0.0374 0.8501 0.175 1.4346 0.372 1.941 0.2031 0.5376 0.5188 1.0189 0.9251 1.419 0.4001 0.4063 0.8846 0.7221 1.4159 0.9221 0.5095 0.1969 1.0908 0.3344 1.9411 0.3719C5.5823 15.9907 5.8543 16 8.0266 16c2.1723 0 2.4442-93e-4 3.2975-0.0469 0.8501-0.0375 1.4346-0.175 1.9409-0.3719 1.0753-0.4158 1.9254-1.2659 2.3412-2.3411 0.1968-0.5095 0.3344-1.0909 0.3719-1.941 0.0375-0.8533 0.0469-1.1252 0.0469-3.2975 0-2.1723-32e-4-2.4442-0.0407-3.2976zM14.5435 11.2366c-0.0345 0.7814-0.1657 1.2033-0.2751 1.4846-0.2689 0.6971-0.8221 1.2503-1.5191 1.5191-0.2813 0.1094-0.7063 0.2407-1.4847 0.275-0.8439 0.0376-1.097 0.0469-3.2318 0.0469-2.1348 0-2.3911-93e-4-3.232-0.0469-0.7814-0.0343-1.2033-0.1656-1.4846-0.275-0.3469-0.1282-0.6626-0.3313-0.9189-0.597-0.2657-0.2595-0.4688-0.572-0.597-0.9189-0.1094-0.2813-0.2407-0.7064-0.275-1.4847-0.0376-0.8439-0.0469-1.0971-0.0469-3.2319 0-2.1348 93e-4-2.3911 0.0469-3.2318 0.0343-0.7814 0.1656-1.2034 0.275-1.4847 0.1282-0.347 0.3313-0.6626 0.6002-0.919 0.2593-0.2657 0.5719-0.4688 0.9189-0.5969C3.6007 1.666 4.0258 1.5347 4.804 1.5003 5.6479 1.4628 5.9012 1.4534 8.0359 1.4534c2.1379 0 2.391 94e-4 3.2319 0.0469 0.7814 0.0344 1.2034 0.1657 1.4847 0.2751 0.3468 0.1281 0.6626 0.3312 0.9189 0.5969 0.2656 0.2594 0.4688 0.572 0.597 0.919 0.1094 0.2813 0.2406 0.7063 0.2751 1.4847 0.0375 0.8439 0.0469 1.097 0.0469 3.2318 0 2.1348-94e-4 2.3849-0.0469 3.2288z" />
                <path d="M8.0297 3.8914c-2.2691 0-4.1102 1.8409-4.1102 4.1101 0 2.2693 1.8411 4.1102 4.1102 4.1102 2.2692 0 4.1101-1.8409 4.1101-4.1102 0-2.2692-1.8409-4.1101-4.1101-4.1101zM8.0297 10.6677c-1.4721 0-2.6662-1.1939-2.6662-2.6662s1.1941-2.6661 2.6662-2.6661c1.4722 0 2.6661 1.1939 2.6661 2.6661s-1.1939 2.6662-2.6661 2.6662z" />
                <path d="M13.262 3.7289c0 0.5299-0.4296 0.9595-0.9596 0.9595-0.5299 0-0.9596-0.4296-0.9596-0.9595 0-0.53 0.4297-0.9596 0.9596-0.9596 0.53 0 0.9596 0.4295 0.9596 0.9595z" />
            </g>
        </symbol>
        <symbol id="icon-twitter" viewBox="0 0 16 16" fill="none">
            <path fill="var(--color3, #f4f4fd)" d="M16 3.039c-0.595 0.261-1.229 0.434-1.89 0.518 0.68-0.406 1.199-1.044 1.443-1.813-0.634 0.378-1.334 0.645-2.08 0.794-0.602-0.641-1.46-1.038-2.396-1.038-1.816 0-3.278 1.474-3.278 3.281 0 0.26 0.022 0.51 0.076 0.748-2.727-0.133-5.14-1.44-6.761-3.431-0.283 0.491-0.449 1.053-0.449 1.658 0 1.136 0.585 2.143 1.457 2.726-0.527-0.01-1.044-0.163-1.482-0.404 0 0.01 0 0.023 0 0.036 0 1.594 1.137 2.918 2.628 3.223C3.001 9.41 2.71 9.445 2.408 9.445c-0.21 0-0.422-0.012-0.621-0.056 0.425 1.299 1.631 2.254 3.065 2.285-1.116 0.873-2.533 1.399-4.067 1.399-0.269 0-0.527-0.012-0.785-0.045 1.453 0.937 3.175 1.472 5.032 1.472 6.036 0 9.336-5 9.336-9.334 0-0.145-5e-3-0.285-0.012-0.424C15.007 4.28 15.554 3.703 16 3.039z" />
        </symbol>
        <symbol id="icon-astronaut" viewBox="0 0 64 64" color="var(--color0, #bababa)" fill="var(--color2, #2e2f42)">
            <path fill="var(--color1, #4d5ae5)" d="M63.948 9.048a1.07 1.07 0 0 0-0.86-0.725l-3.822-0.556-1.71-3.462c-0.358-0.73-1.553-0.73-1.912 0l-1.71 3.462-3.82 0.556a1.066 1.066 0 0 0-0.592 1.819l2.765 2.695-0.653 3.806a1.069 1.069 0 0 0 1.548 1.124L56.6 15.97l3.418 1.797a1.068 1.068 0 0 0 1.547-1.124l-0.652-3.806 2.766-2.696a1.07 1.07 0 0 0 0.269-1.093zM59.022 11.702c-0.25 0.244-0.366 0.598-0.306 0.944l0.382 2.228-2.001-1.051a1.06 1.06 0 0 0-0.994 0l-2.001 1.051 0.382-2.228a1.07 1.07 0 0 0-0.307-0.944l-1.62-1.579 2.238-0.325c0.348-0.05 0.648-0.269 0.803-0.583l1-2.027 1.002 2.026c0.156 0.315 0.456 0.534 0.804 0.584l2.237 0.325zM52.267 41.044h-2.134v2.134h2.134zM52.267 45.311h-2.134v2.134h2.134zM54.4 43.178h-2.133v2.133H54.4zM50.134 43.178H48v2.133h2.134zM44.8 52.778h-2.133v2.133H44.8zM44.8 57.045h-2.133v2.133H44.8zM46.934 54.911H44.8v2.134h2.134zM42.667 54.911h-2.134v2.134h2.134zM32 48.511h-2.133v2.134H32zM32 52.778h-2.133v2.133H32zM34.133 50.645H32v2.133h2.133zM29.867 50.645h-2.134v2.133h2.134zM11.733 12.244H9.6v2.133h2.133zM11.733 16.51H9.6v2.134h2.133zM13.866 14.377h-2.133v2.134h2.133zM9.6 14.377H7.466v2.134H9.6z" />
            <path d="M49.43 28.319a3.55 3.55 0 0 0-2.377-1.41 3.55 3.55 0 0 0-2.68 0.705l-2.503 1.919h-1e-3l-3.796 2.835-2.715-1.082c4.842-2.172 8.227-7.016 8.227-12.64C43.585 11 37.34 4.78 29.663 4.78S15.74 11 15.74 18.646c0 2.771 0.83 5.349 2.24 7.517l-5.527-0.048h-0.01c-0.017 0-0.03 9e-3-0.047 0.01a1 1 0 0 0-0.31 0.062c-0.026 0.01-0.052 0.015-0.077 0.026-0.012 6e-3-0.025 7e-3-0.038 0.013l-6.466 3.193h-2e-3l-3.787 1.822a1 1 0 0 0-0.126 0.07 3.56 3.56 0 0 0-1.197 4.589 3.55 3.55 0 0 0 2.112 1.779 3.56 3.56 0 0 0 2.757-0.257l2.776-1.476 4.528-2.339 2.714-0.015-10.884 10.83q0 2e-3-3e-3 3e-3l-2.677 2.666a3.3 3.3 0 0 0-0.98 2.356 3.33 3.33 0 0 0 3.338 3.327c0.854 0 1.709-0.323 2.36-0.97l2.629-2.618 3.481-2.599 1.802 1.794-3.523 3.508-3e-3 3e-3-2.678 2.666a3.3 3.3 0 0 0-0.98 2.355c0 0.89 0.347 1.727 0.98 2.358 0.65 0.646 1.505 0.97 2.36 0.97s1.71-0.324 2.36-0.97l2.678-2.667 4.285-4.266 2e-3-4e-3 2.02-2-8e-3-7e-3c0.013-0.013 0.031-0.017 0.044-0.031L32.215 38.98l6.942 0.988q0.075 0.011 0.15 0.01c0.13 0 0.254-0.03 0.375-0.076q0.051-0.02 0.099-0.047c0.038-0.019 0.079-0.03 0.115-0.054l6.427-4.267c0.023-0.016 0.036-0.042 0.058-0.059 0.026-0.02 0.058-0.028 0.081-0.05l2.543-2.383a3.56 3.56 0 0 0 0.425-4.723zM4.26 35.54c-0.346 0.186-0.74 0.223-1.116 0.104a1.43 1.43 0 0 1-0.425-2.52l2.628-1.264 0.632 1.849 0.266 0.776zM11.255 31.885l-3.097 1.6-0.51-1.494-0.367-1.073 4.053-2zM41.454 18.644c0 1.837-0.439 3.57-1.198 5.119l-8.363-3.798a3.72 3.72 0 0 0-1.576-2.776l2.928-9.72C38 8.98 41.454 13.416 41.454 18.643M17.876 18.643c0-6.47 5.289-11.733 11.789-11.733 0.506 0 1 0.042 1.49 0.104l-2.864 9.507c-0.038 0-0.075-0.011-0.114-0.011a3.743 3.743 0 0 0-3.745 3.733 3.743 3.743 0 0 0 3.745 3.733 3.73 3.73 0 0 0 3.236-1.889l7.725 3.51c-2.15 2.893-5.59 4.78-9.473 4.78-6.5 0-11.789-5.265-11.789-11.734M29.789 20.243c0 0.882-0.724 1.6-1.612 1.6a1.61 1.61 0 0 1-1.612-1.6c0-0.882 0.723-1.6 1.612-1.6s1.612 0.718 1.612 1.6M4.929 50.292a1.217 1.217 0 0 1-1.708 2e-3 1.19 1.19 0 0 1 0-1.689l1.924-1.917 1.703 1.695zM11.357 57.759a1.216 1.216 0 0 1-1.71 1e-3 1.19 1.19 0 0 1 0-1.688l1.926-1.918 0.805 0.801 0.899 0.894zM18.321 50.822l-4e-3 2e-3-3.53 3.52-0.805-0.801-0.898-0.894 3.527-3.51v-2e-3l3e-3-2e-3c0.08-0.08 0.13-0.176 0.18-0.27 0.013-0.028 0.04-0.052 0.051-0.08 0.034-0.083 0.039-0.171 0.052-0.258 6e-3-0.049 0.028-0.095 0.028-0.145 0-0.071-0.026-0.14-0.041-0.211-0.013-0.064-0.013-0.13-0.037-0.191-0.04-0.1-0.11-0.189-0.183-0.275-0.02-0.024-0.028-0.054-0.05-0.076h-1e-3l-2e-3-4e-3-3.214-3.2c-0.034-0.034-0.078-0.048-0.116-0.077a1 1 0 0 0-0.174-0.115 1 1 0 0 0-0.187-0.065 1 1 0 0 0-0.206-0.04 1 1 0 0 0-0.19 0.01 1 1 0 0 0-0.209 0.04 1 1 0 0 0-0.188 0.09c-0.04 0.022-0.085 0.03-0.122 0.057l-3.547 2.648-1.801-1.794 4.798-4.772 8.72 8.577zM31.958 36.788c-0.03-4e-3-0.06 8e-3-0.09 6e-3a1 1 0 0 0-0.23 0.014q-0.09 0.013-0.177 0.042a1 1 0 0 0-0.193 0.094q-0.089 0.053-0.166 0.123c-0.026 0.022-0.057 0.033-0.08 0.058l-9.397 10.292-8.656-8.514 5.666-5.636a1.068 1.068 0 0 0-0.759-1.822l-4.437 0.026 0.055-3.215 6.208 0.053a13.9 13.9 0 0 0 9.963 4.202c0.875 0 1.728-0.09 2.559-0.245 0.08 0.064 0.159 0.129 0.26 0.17l4.819 1.92 0.305 1.516 0.356 1.77zM40.041 37.145l-0.626-3.116 2.892-2.16 0.758 1.004 1.136 1.509zM47.548 31.483l-1.676 1.57-1.862-2.473 1.663-1.274c0.31-0.24 0.701-0.336 1.085-0.286a1.434 1.434 0 0 1 0.79 2.463" />
            <path d="M27.204 37.088l-4.286-4.267a1.066 1.066 0 0 0-1.505 0l-4.285 4.267a1.07 1.07 0 0 0 0 1.513l4.285 4.266a1.066 1.066 0 0 0 1.505 0l4.286-4.266a1.067 1.067 0 0 0 0-1.513M22.166 40.606l-2.773-2.762 2.773-2.761 2.775 2.761zM34.329 10.142l-0.516 2.071c0.142 0.035 3.476 0.904 3.476 4.298h2.133c0-4.034-3.331-5.931-5.093-6.37M39.422 18.644h-2.133v2.134h2.133z" />
        </symbol>
        <symbol id="icon-antenna" viewBox="0 0 64 64" color="var(--color0, #bababa)" fill="none">
            <path fill="var(--color2, #2e2f42)" d="M61.546 44.195 44.66 27.185l1.874-9.23c0.484 0.188 0.998 0.287 1.517 0.29h0.013a4.318 4.318 0 1 0-4.017-2.87l-9.92 1.21L17.945 0.32A1.07 1.07 0 0 0 17.192 0c-0.28 2e-3-0.548 0.113-0.747 0.31L13.42 3.318a1.067 1.067 0 0 0 0 1.509l1.628 1.65a29.885 29.885 0 0 0 5.04 35.327q0.127 0.122 0.291 0.195a6 6 0 0 0-0.104 1.094v12.374h-12.8A5.34 5.34 0 0 0 2.142 60.8v2.133c0 0.59 0.477 1.067 1.066 1.067h49.067c0.589 0 1.067-0.478 1.067-1.067V60.8a5.34 5.34 0 0 0-5.334-5.333h-12.8v-5.484c2.005 0.42 4.048 0.635 6.097 0.64a29.7 29.7 0 0 0 14.08-3.567l1.636 1.646c0.199 0.202 0.47 0.318 0.754 0.32 0.28-2e-3 0.548-0.113 0.746-0.31l3.025-3.009a1.067 1.067 0 0 0 0-1.508M46.56 12.466a2.133 2.133 0 1 1 1.504 3.646h-7e-3a2.133 2.133 0 0 1-1.497-3.646zM44.049 19.476l-1.197 5.89-2.351-2.364zM42.837 17.672l-3.84 3.817-2.97-2.987zM48.008 57.6a3.2 3.2 0 0 1 3.2 3.2v1.067H4.275V60.8a3.2 3.2 0 0 1 3.2-3.2zM33.075 53.333v2.134H22.408v-2.134zM22.408 51.2v-8.107c0-2.587 2.393-4.693 5.334-4.693s5.333 2.106 5.333 4.693V51.2zM35.208 47.808v-4.715c0-3.764-3.35-6.826-7.467-6.826a7.6 7.6 0 0 0-6.562 3.572 27.74 27.74 0 0 1-4.557-31.774l37.204 37.417a27.64 27.64 0 0 1-18.618 2.326M57.786 46.441l-1.503-1.512L17.182 5.592l-1.51-1.513 1.51-1.504 15.87 15.96c7e-3 0 0.011 0.013 0.019 0.019L59.3 44.937z" />
            <path fill="var(--color1, #4d5ae5)" d="M27.751 40.533h-0.01a3.2 3.2 0 0 0-0.01 6.4h0.01a3.2 3.2 0 0 0 0.01-6.4M28.498 44.49a1.067 1.067 0 0 1-1.818-0.762 1.07 1.07 0 0 1 1.062-1.061 1.067 1.067 0 0 1 0.756 1.823z" />
        </symbol>
        <symbol id="icon-clock" viewBox="0 0 64 64" color="var(--color0, #bababa)" fill="var(--color1, #4d5ae5)">
            <path fill="var(--color2, #2e2f42)" d="M62.593 30.603C62.59 13.697 48.883-4e-3 31.977 0 15.074 3e-3 1.372 13.71 1.375 30.616a30.61 30.61 0 0 0 21.299 29.152q0.182 0.058 0.373 0.057c0.242 0 0.478-0.065 0.685-0.187 0.27-0.16 0.472-0.414 0.567-0.713l7.73-24.5a3.826 3.826 0 1 0-1.68-7.27L20.137 16.942a1.275 1.275 0 0 0-1.803 1.804l10.207 10.218a3.75 3.75 0 0 0 1.072 4.618l-7.365 23.346C7.692 51.566 0.239 35.42 5.601 20.864 10.963 6.31 27.11-1.144 41.665 4.217 56.22 9.58 63.673 25.726 58.312 40.281a28.1 28.1 0 0 1-14.925 15.947l-0.796-3.749a1.275 1.275 0 0 0-2.096-0.687l-7.674 6.851a1.275 1.275 0 0 0 0.462 2.169l9.797 3.127a1.275 1.275 0 0 0 1.638-1.48l-0.782-3.678a30.51 30.51 0 0 0 18.657-28.178M31.984 29.327a1.276 1.276 0 1 1 0 2.552 1.276 1.276 0 0 1 0-2.552M36.185 59.055l4.368-3.896 1.206 5.68z" />
            <path d="M30.709 6.37v2.55a1.275 1.275 0 1 0 2.55 0V6.37a1.276 1.276 0 0 0-2.55 0M7.752 29.327a1.275 1.275 0 0 0 0 2.55h2.55a1.275 1.275 0 1 0 0-2.55zM56.216 31.878a1.275 1.275 0 1 0 0-2.55h-2.55a1.276 1.276 0 0 0 0 2.55z" />
        </symbol>
        <symbol id="icon-diagram" viewBox="0 0 64 64" color="var(--color0, #bababa)" fill="none">
            <g fill="var(--color1, #4d5ae5)" clip-path="url(#a)">
                <path d="M29.851 29.93h2.132v9.594h-2.132zM38.38 34.194h2.132v5.33H38.38zM21.322 37.392h2.132v2.132h-2.132zM14.926 36.326h2.132v3.198h-2.132z" />
                <path fill="var(--color2, #2e2f42)" d="M3.198 56.582h51.174a3.2 3.2 0 0 0 3.198-3.198v-4.265a3.2 3.2 0 0 0-3.198-3.198h-1.067V19.334l6.056-5.736a3.216 3.216 0 1 0-1.493-1.526l-4.563 4.325v-2.46a3.2 3.2 0 0 0-3.198-3.198H7.463a3.2 3.2 0 0 0-3.199 3.199V45.92H3.198A3.2 3.2 0 0 0 0 49.119v4.265a3.2 3.2 0 0 0 3.198 3.198M60.768 9.673a1.066 1.066 0 1 1 0 2.133 1.066 1.066 0 0 1 0-2.133M6.397 13.938c0-0.59 0.477-1.067 1.066-1.067h42.644c0.589 0 1.066 0.478 1.066 1.067v4.477l-2.132 2.026V16.07c0-0.589-0.477-1.066-1.066-1.066H9.595c-0.589 0-1.066 0.477-1.066 1.066v26.653c0 0.588 0.477 1.066 1.066 1.066h38.38c0.589 0 1.066-0.478 1.066-1.067V23.374l2.132-2.02V45.92H6.397zM15.992 27.797a3.198 3.198 0 1 0 2.214 5.497l3.706 1.86c0.43 0.215 0.953 0.114 1.273-0.246l7.877-8.863 7.744 5.803c0.416 0.311 0.996 0.278 1.372-0.079l6.73-6.375v16.262H10.662v-24.52H46.91v5.32L39.366 29.6l-7.81-5.854a1.067 1.067 0 0 0-1.435 0.144l-7.986 8.985-2.986-1.493q0.033-0.192 0.041-0.387a3.2 3.2 0 0 0-3.198-3.198M17.058 30.995a1.066 1.066 0 1 1-2.133 0 1.066 1.066 0 0 1 2.133 0M23.454 48.053h10.661v1.066c0 0.589-0.477 1.066-1.066 1.066H24.52a1.066 1.066 0 0 1-1.066-1.066zM2.132 49.12c0-0.589 0.478-1.066 1.066-1.066h18.124v1.066a3.2 3.2 0 0 0 3.198 3.198h8.53a3.2 3.2 0 0 0 3.198-3.198v-1.066h18.124c0.588 0 1.066 0.477 1.066 1.066v4.265c0 0.588-0.478 1.066-1.067 1.066H3.198a1.066 1.066 0 0 1-1.066-1.066z" />
            </g>
            <defs>
                <clipPath id="a">
                    <path fill="#fff" d="M0 0h64v64H0z" />
                </clipPath>
            </defs>
        </symbol>
    </defs>
</svg>